PathFileType	4	(X/Y/Z)	E:\Qualisys_Data\Carbon_Farble_Plate\Data\Amateur_Runner\S1\T2\S1T2V11_c3d.trc
DataRate	CameraRate	NumFrames	NumMarkers	Units	OrigDataRate	OrigDataStartFrame	OrigNumFrames
200.000000	200.000000	4	39	mm	200.000000	156	312
Frame#	Time	LSHO			RSHO			LICST			RICST			LASIS			LHEEL			RASIS			LTROC			RTROC			SACR			LTH1			LSK4			LTH2			LTH3			RHM5			LSK2			LTH4			RTH1			LTOE			RTH2			RTH3			RTH4			LLEP			RLEP			LSK1			LSK3			RSK1			LHM5			RSK2			LFT1			RSK3			RSK4			LLME			RLME			RTOE			RHEEL			RFT1			RFT2			LFT2			
		X1	Y1	Z1	X2	Y2	Z2	X3	Y3	Z3	X4	Y4	Z4	X5	Y5	Z5	X6	Y6	Z6	X7	Y7	Z7	X8	Y8	Z8	X9	Y9	Z9	X10	Y10	Z10	X11	Y11	Z11	X12	Y12	Z12	X13	Y13	Z13	X14	Y14	Z14	X15	Y15	Z15	X16	Y16	Z16	X17	Y17	Z17	X18	Y18	Z18	X19	Y19	Z19	X20	Y20	Z20	X21	Y21	Z21	X22	Y22	Z22	X23	Y23	Z23	X24	Y24	Z24	X25	Y25	Z25	X26	Y26	Z26	X27	Y27	Z27	X28	Y28	Z28	X29	Y29	Z29	X30	Y30	Z30	X31	Y31	Z31	X32	Y32	Z32	X33	Y33	Z33	X34	Y34	Z34	X35	Y35	Z35	X36	Y36	Z36	X37	Y37	Z37	X38	Y38	Z38	X39	Y39	Z39	

157	0.78	341.8577575683594	1514.744750976562	-493.0750122070312	266.4634094238281	1494.313354492188	-181.3351593017578	276.0544128417969	1034.914428710938	-489.2712097167969	268.9106750488281	1058.35595703125	-194.3074798583984	318.2601623535156	995.0164794921876	-462.8233032226562	-253.5761260986328	408.838134765625	-396.5563049316406	307.7602844238281	1011.449340820312	-200.2398376464844	200.5768280029297	919.5386352539062	-510.424072265625	203.0765686035156	917.4324951171876	-172.3810119628906	153.5881195068359	1063.279296875	-341.3269653320312	300.6737976074219	750.3096313476562	-473.4735107421875	-117.3661956787109	452.1566162109375	-428.5798034667969	224.1229553222656	756.6873168945312	-505.3512878417969	284.070068359375	647.6625366210938	-461.4530639648438	554.9063110351562	81.35689544677734	-196.6068267822266	-25.29529762268066	482.6353454589844	-465.2074279785156	203.4628295898438	659.6060180664062	-485.3451232910156	360.0475463867188	816.1027221679688	-182.1486511230469	-204.8696441650391	159.3966064453125	-377.8701171875	285.4403381347656	791.4625244140625	-159.4253692626953	388.9662780761719	718.38427734375	-188.8158569335938	311.0918579101562	695.6781005859375	-174.0213165283203	189.7873687744141	506.0590209960938	-457.44873046875	389.0881652832031	543.4627075195312	-215.5488891601562	-0.0170539729297161	403.5010070800781	-457.0537414550781	-97.80023956298828	377.3587646484375	-451.7655944824219	409.5348510742188	353.0153503417969	-193.012939453125	-256.6458435058594	209.3210906982422	-445.9959106445312	329.1354370117188	343.0841674804688	-202.2079772949219	-274.9876098632812	397.46337890625	-366.5985717773438	424.5581359863281	254.1581115722656	-205.7984008789062	345.9900207519531	245.5106506347656	-224.4500579833984	-215.9884948730469	361.255126953125	-445.5898742675781	415.4210510253906	117.9905166625977	-206.57763671875	607.3834838867188	120.4794311523438	-269.8422546386719	361.8688354492188	77.44184875488281	-248.8856048583984	378.9205322265625	48.76575469970703	-280.248046875	372.5476989746094	47.14541625976562	-225.6036987304688	-282.4545593261719	393.8885192871094	-421.6054992675781
158	0.785	357.3899841308594	1510.626342773438	-491.9598388671875	282.3054809570312	1489.132080078125	-179.9906158447266	291.7099609375	1030.184448242188	-488.8074951171875	280.8150939941406	1054.092407226562	-192.7369232177734	333.9844055175781	990.5679321289062	-462.2349853515625	-231.6144714355469	412.8654174804688	-395.1087646484375	324.8544616699219	1007.919982910156	-199.7540740966797	216.8001556396484	914.3218994140624	-509.8658142089844	218.3883972167969	913.5504760742188	-172.3261871337891	168.1476898193359	1058.36376953125	-341.0366516113281	319.6542663574219	746.5173950195312	-474.3749084472656	-94.810546875	452.918212890625	-427.6477966308594	242.6271514892578	751.588623046875	-505.4774780273438	304.6584167480469	643.7537841796875	-462.7247924804688	559.7219848632812	70.72854614257812	-196.4599456787109	-2.212370872497559	481.4881896972656	-464.9043273925781	223.7582244873047	654.233154296875	-486.0431518554688	375.9350280761719	812.4694213867188	-180.6985321044922	-187.1329498291016	162.3731842041016	-378.9564514160156	301.0815734863281	787.0338134765625	-159.156982421875	404.6466979980469	714.9470825195312	-188.9483032226562	326.9108581542969	691.712646484375	-174.3006744384766	212.8125610351562	501.0449523925781	-458.3240051269531	403.1119689941406	539.0282592773438	-214.2705688476562	21.56033706665039	401.9654846191406	-457.649169921875	-76.93077850341797	377.9736633300781	-451.5381774902344	420.401123046875	347.5068054199219	-193.5320281982422	-238.2667388916016	213.9751434326172	-446.0737609863281	339.3129272460938	339.1683044433594	-202.8189544677734	-253.1081237792969	401.6653747558594	-365.2351989746094	433.1642150878906	248.5042572021484	-206.0685119628906	354.8091125488281	241.7840728759766	-225.5030975341797	-195.2083129882812	365.1437072753906	-445.114990234375	422.2577819824219	114.3783340454102	-206.8157806396484	614.0476684570312	106.2510528564453	-269.4713745117188	365.9968872070312	76.11148834228516	-248.5986633300781	381.9568481445312	47.84685897827148	-280.8036193847656	375.1390075683594	46.79146957397461	-225.5449066162109	-260.6040344238281	398.8039855957031	-420.1866455078125
159	0.79	372.4245300292969	1506.307006835938	-491.0822143554688	298.8002319335938	1483.858276367188	-178.6476898193359	307.2994995117188	1025.461303710938	-488.3580932617188	296.6081237792969	1050.217651367188	-192.2363891601562	349.2586669921875	986.0325317382812	-461.68408203125	-208.4114532470703	416.35205078125	-392.4486999511719	337.2656555175781	1004.001892089844	-198.3718109130859	232.8438262939453	909.08349609375	-509.3973083496094	233.2805633544922	909.1450805664062	-171.8232269287109	183.5031280517578	1053.447509765625	-340.9243774414062	338.3144836425781	742.7273559570312	-475.0829467773438	-71.36878204345703	453.5405578613281	-426.6712646484375	261.0027160644531	746.9832763671875	-505.4957275390625	325.3434448242188	639.3409423828125	-463.8666381835938	564.273193359375	60.69919967651367	-196.1461791992188	21.3476505279541	480.4818115234375	-464.5520324707031	243.5039367675781	649.01611328125	-486.0778198242188	391.6663513183594	808.5487060546875	-179.4088439941406	-168.3794860839844	165.2687835693359	-379.7390747070312	316.5889892578125	782.72314453125	-158.3030853271484	420.1305847167969	711.2720947265625	-188.6229095458984	343.6365356445312	687.7582397460938	-176.2175140380859	235.7821197509766	496.248779296875	-459.7614440917969	416.8929748535156	533.9776000976562	-213.2640686035156	43.33676147460938	399.9482421875	-457.8141784667969	-55.35138320922852	378.6640930175781	-451.3435363769531	430.6834106445312	342.544677734375	-193.7399597167969	-219.4118957519531	218.2566223144531	-446.2311096191406	349.9987182617188	336.3441162109375	-203.7574615478516	-230.3814239501953	405.5724487304688	-363.6793518066406	441.2787780761719	243.3950653076172	-206.57568359375	362.7204284667969	238.7542419433594	-226.5357818603516	-174.0401458740234	368.4107055664062	-443.7190856933594	427.8457946777344	110.9651412963867	-207.1484680175781	620.4803466796875	92.51202392578124	-270.2205200195312	370.0372619628906	75.6422348022461	-248.24169921875	384.2955932617188	46.51398468017578	-280.1026916503906	377.7520446777344	45.92765808105469	-225.8091583251953	-238.4732208251953	403.14208984375	-418.7180480957031
160	0.795	387.4705810546875	1502.029174804688	-490.5690307617188	314.6070251464844	1478.388427734375	-177.3992462158203	322.1561279296875	1020.77978515625	-488.3522033691406	310.6946411132812	1045.908813476562	-191.8315734863281	364.596923828125	981.5365600585938	-461.0547180175781	-185.9535217285156	419.6571350097656	-393.0772399902344	352.4959716796875	1000.075378417969	-197.3953399658203	249.0316467285156	903.4855346679688	-508.661376953125	248.0951232910156	904.7482299804688	-171.4703979492188	198.8464813232422	1048.747924804688	-340.8759155273438	357.2351989746094	738.8113403320312	-476.206298828125	-47.71825790405273	453.9022521972656	-426.0735778808594	279.0448608398438	741.5048828125	-505.1724548339844	346.0647583007812	635.2120971679688	-465.6610412597656	569.9151611328125	58.50445938110352	-195.7243957519531	44.66634368896484	479.518310546875	-464.206787109375	263.3570556640625	643.3790283203125	-485.9751281738281	405.1020812988281	803.0287475585938	-178.9425811767578	-148.6722869873047	167.9960021972656	-380.7803344726562	331.9415588378906	777.4842529296875	-157.6421356201172	435.5706176757812	706.6507568359375	-188.3662414550781	359.0113830566406	682.8857421875	-176.1933746337891	259.3090515136719	491.5237426757812	-460.7698974609375	430.9247131347656	528.808837890625	-212.1505432128906	65.75495910644531	398.3334045410156	-458.0618896484375	-33.49796295166016	378.7702941894531	-450.7986145019531	441.5329284667969	338.4176330566406	-194.5527801513672	-199.2740173339844	222.3057861328125	-446.2719116210938	360.3592529296875	334.2049560546875	-204.8976440429688	-207.5797424316406	408.7411193847656	-362.1756286621094	449.7598876953125	238.8975372314453	-207.0018920898438	371.1587219238281	236.1018218994141	-227.8722839355469	-152.0628051757812	371.7782592773438	-442.751708984375	433.3795166015625	107.6758041381836	-207.2407073974609	625.8511352539062	81.3172607421875	-273.322509765625	373.5416259765625	75.62809753417969	-247.6298065185547	386.345703125	46.09320449829102	-280.3183898925781	380.1023864746094	45.29695892333984	-225.4216766357422	-215.8604125976562	407.1712341308594	-416.329345703125
